<svg width="181" height="54" viewBox="0 0 181 54" fill="none" xmlns="http://www.w3.org/2000/svg">
<path d="M17.032 19.224C16.752 18.9253 16.4627 18.636 16.164 18.356C15.8653 18.0573 15.3893 17.6187 14.736 17.04L3.704 6.96H3.648V16.2C3.648 16.8347 3.80667 17.348 4.124 17.74C4.46 18.1133 5.02933 18.3187 5.832 18.356V19H0.652V18.356C1.19333 18.3187 1.58533 18.1133 1.828 17.74C2.07067 17.348 2.192 16.8347 2.192 16.2V3.18C2.192 2.26533 2.052 1.68667 1.772 1.444C1.51067 1.18267 0.997333 1.04267 0.232 1.024V0.379999H3.592C3.872 0.734666 4.17067 1.052 4.488 1.332C4.80533 1.612 5.16933 1.948 5.58 2.34L16.724 12.42H16.78V3.18C16.78 2.54533 16.6213 2.032 16.304 1.64C15.9867 1.248 15.4173 1.04267 14.596 1.024V0.379999H19.776V1.024C19.2347 1.04267 18.8427 1.248 18.6 1.64C18.3573 2.032 18.236 2.54533 18.236 3.18V16.2C18.236 16.7227 18.236 17.2267 18.236 17.712C18.2547 18.1787 18.2733 18.6827 18.292 19.224H17.032ZM23.2504 19V18.356C23.7917 18.3187 24.1837 18.1787 24.4264 17.936C24.6691 17.6933 24.7904 17.1147 24.7904 16.2V3.18C24.7904 2.26533 24.6504 1.68667 24.3704 1.444C24.1091 1.18267 23.5957 1.04267 22.8304 1.024V0.379999H36.5784V4.3H35.9344C35.8971 3.49733 35.6171 2.844 35.0944 2.34C34.5904 1.836 33.8064 1.584 32.7424 1.584H30.5024C30.1104 1.584 29.8024 1.68667 29.5784 1.892C29.3731 2.09733 29.2704 2.52667 29.2704 3.18V8.696C29.4197 8.584 29.5971 8.50933 29.8024 8.472C30.0264 8.43467 30.2877 8.416 30.5864 8.416H33.3024C33.8624 8.416 34.3291 8.25733 34.7024 7.94C35.0757 7.62267 35.2717 7.184 35.2904 6.624H35.9344V11.384H35.2904C35.2717 10.6933 35.0757 10.2267 34.7024 9.984C34.3291 9.74133 33.8624 9.62 33.3024 9.62H30.6424C30.1384 9.62 29.7837 9.704 29.5784 9.872C29.3731 10.04 29.2704 10.3667 29.2704 10.852V16.2C29.2704 16.8533 29.4104 17.2827 29.6904 17.488C29.9891 17.6933 30.5584 17.796 31.3984 17.796H34.0584C35.1784 17.796 36.0651 17.46 36.7184 16.788C37.3717 16.116 37.7357 15.3133 37.8104 14.38H38.4544L38.2304 19H23.2504ZM40.7471 0.379999H56.7071V5H56.0631C55.9511 3.992 55.6525 3.17067 55.1671 2.536C54.6818 1.90133 53.8511 1.584 52.6751 1.584H50.9671V16.2C50.9671 17.1147 51.1071 17.6933 51.3871 17.936C51.6671 18.1787 52.1805 18.3187 52.9271 18.356V19H44.9471V18.356C45.4885 18.3187 45.8805 18.1787 46.1231 17.936C46.3658 17.6933 46.4871 17.1147 46.4871 16.2V1.584H44.7511C43.6125 1.584 42.7911 1.90133 42.2871 2.536C41.8018 3.17067 41.5031 3.992 41.3911 5H40.7471V0.379999ZM59.8079 19V18.356C60.3492 18.3187 60.7412 18.1787 60.9839 17.936C61.2266 17.6933 61.3479 17.1147 61.3479 16.2V3.18C61.3479 2.26533 61.2079 1.68667 60.9279 1.444C60.6666 1.18267 60.1532 1.04267 59.3879 1.024V0.379999H67.3679V1.024C66.8266 1.04267 66.4346 1.18267 66.1919 1.444C65.9492 1.68667 65.8279 2.26533 65.8279 3.18V8.136C65.9772 8.024 66.1546 7.94933 66.3599 7.912C66.5839 7.87467 66.8452 7.856 67.1439 7.856H72.4359C72.9399 7.856 73.2946 7.772 73.4999 7.604C73.7052 7.436 73.8079 7.1 73.8079 6.596V3.18C73.8079 2.26533 73.6679 1.68667 73.3879 1.444C73.1266 1.18267 72.6132 1.04267 71.8479 1.024V0.379999H79.8279V1.024C79.2866 1.04267 78.8946 1.18267 78.6519 1.444C78.4092 1.68667 78.2879 2.26533 78.2879 3.18V16.2C78.2879 17.1147 78.4279 17.6933 78.7079 17.936C78.9879 18.1787 79.5012 18.3187 80.2479 18.356V19H72.2679V18.356C72.8092 18.3187 73.2012 18.1787 73.4439 17.936C73.6866 17.6933 73.8079 17.1147 73.8079 16.2V8.752C73.6586 8.88267 73.4719 8.96667 73.2479 9.004C73.0239 9.04133 72.7719 9.06 72.4919 9.06H67.1999C66.6959 9.06 66.3412 9.144 66.1359 9.312C65.9306 9.48 65.8279 9.80667 65.8279 10.292V16.2C65.8279 17.1147 65.9679 17.6933 66.2479 17.936C66.5279 18.1787 67.0412 18.3187 67.7879 18.356V19H59.8079ZM0.624 53V52.356C1.16533 52.3187 1.55733 52.1787 1.8 51.936C2.04267 51.6933 2.164 51.1147 2.164 50.2V37.18C2.164 36.2653 2.024 35.6867 1.744 35.444C1.48267 35.1827 0.969333 35.0427 0.204 35.024V34.38H2.164C3.20933 34.38 4.124 34.3707 4.908 34.352C5.692 34.3147 6.46667 34.2867 7.232 34.268C7.99733 34.2493 8.86533 34.24 9.836 34.24C12.0573 34.24 13.7 34.5947 14.764 35.304C15.828 36.0133 16.36 36.956 16.36 38.132C16.36 39.196 16.0053 40.0827 15.296 40.792C14.6053 41.5013 13.6533 41.9867 12.44 42.248V42.304C14.1573 42.4907 15.4827 43.004 16.416 43.844C17.368 44.6653 17.844 45.7667 17.844 47.148C17.844 48.212 17.564 49.192 17.004 50.088C16.444 50.9653 15.5853 51.6747 14.428 52.216C13.2707 52.7387 11.7773 53 9.948 53H0.624ZM6.644 42.64C6.88667 42.472 7.11067 42.3693 7.316 42.332C7.54 42.276 7.80133 42.2387 8.1 42.22C9.20133 42.1267 10.06 41.744 10.676 41.072C11.292 40.4 11.6 39.5133 11.6 38.412C11.6 37.6653 11.4507 37.0773 11.152 36.648C10.872 36.2187 10.508 35.9107 10.06 35.724C9.63067 35.5373 9.17333 35.444 8.688 35.444C7.88533 35.444 7.344 35.556 7.064 35.78C6.784 35.9853 6.644 36.452 6.644 37.18V42.64ZM8.296 51.796C9.472 51.796 10.4053 51.572 11.096 51.124C11.8053 50.676 12.3093 50.1067 12.608 49.416C12.9253 48.7067 13.084 47.96 13.084 47.176C13.084 45.8507 12.692 44.8893 11.908 44.292C11.124 43.6947 10.1347 43.396 8.94 43.396C8.19333 43.396 7.624 43.5267 7.232 43.788C6.84 44.0307 6.644 44.4507 6.644 45.048V50.2C6.644 50.8533 6.74667 51.2827 6.952 51.488C7.15733 51.6933 7.60533 51.796 8.296 51.796ZM30.8837 33.96C32.209 33.96 33.441 34.184 34.5797 34.632C35.7184 35.08 36.7264 35.7333 37.6037 36.592C38.481 37.432 39.1624 38.4493 39.6477 39.644C40.133 40.8387 40.3757 42.1733 40.3757 43.648C40.3757 45.1227 40.133 46.4573 39.6477 47.652C39.1624 48.8467 38.481 49.8733 37.6037 50.732C36.745 51.5907 35.737 52.2533 34.5797 52.72C33.4224 53.1867 32.181 53.42 30.8557 53.42C29.549 53.42 28.317 53.196 27.1597 52.748C26.021 52.3 25.013 51.656 24.1357 50.816C23.2584 49.9573 22.577 48.9307 22.0917 47.736C21.6064 46.5413 21.3637 45.2067 21.3637 43.732C21.3637 42.2573 21.6064 40.9227 22.0917 39.728C22.577 38.5333 23.249 37.5067 24.1077 36.648C24.985 35.7893 26.0024 35.1267 27.1597 34.66C28.317 34.1933 29.5584 33.96 30.8837 33.96ZM31.4437 52.216C32.4144 52.216 33.1797 51.8987 33.7397 51.264C34.2997 50.6107 34.701 49.7147 34.9437 48.576C35.205 47.4373 35.3357 46.112 35.3357 44.6C35.3357 41.5573 34.869 39.224 33.9357 37.6C33.021 35.976 31.8077 35.164 30.2957 35.164C29.3437 35.164 28.5784 35.4813 27.9997 36.116C27.4397 36.7507 27.029 37.6467 26.7677 38.804C26.525 39.9427 26.4037 41.268 26.4037 42.78C26.4037 45.8227 26.861 48.156 27.7757 49.78C28.709 51.404 29.9317 52.216 31.4437 52.216ZM53.7015 33.96C55.0268 33.96 56.2588 34.184 57.3975 34.632C58.5362 35.08 59.5442 35.7333 60.4215 36.592C61.2988 37.432 61.9802 38.4493 62.4655 39.644C62.9508 40.8387 63.1935 42.1733 63.1935 43.648C63.1935 45.1227 62.9508 46.4573 62.4655 47.652C61.9802 48.8467 61.2988 49.8733 60.4215 50.732C59.5628 51.5907 58.5548 52.2533 57.3975 52.72C56.2402 53.1867 54.9988 53.42 53.6735 53.42C52.3668 53.42 51.1348 53.196 49.9775 52.748C48.8388 52.3 47.8308 51.656 46.9535 50.816C46.0762 49.9573 45.3948 48.9307 44.9095 47.736C44.4242 46.5413 44.1815 45.2067 44.1815 43.732C44.1815 42.2573 44.4242 40.9227 44.9095 39.728C45.3948 38.5333 46.0668 37.5067 46.9255 36.648C47.8028 35.7893 48.8202 35.1267 49.9775 34.66C51.1348 34.1933 52.3762 33.96 53.7015 33.96ZM54.2615 52.216C55.2322 52.216 55.9975 51.8987 56.5575 51.264C57.1175 50.6107 57.5188 49.7147 57.7615 48.576C58.0228 47.4373 58.1535 46.112 58.1535 44.6C58.1535 41.5573 57.6868 39.224 56.7535 37.6C55.8388 35.976 54.6255 35.164 53.1135 35.164C52.1615 35.164 51.3962 35.4813 50.8175 36.116C50.2575 36.7507 49.8468 37.6467 49.5855 38.804C49.3428 39.9427 49.2215 41.268 49.2215 42.78C49.2215 45.8227 49.6788 48.156 50.5935 49.78C51.5268 51.404 52.7495 52.216 54.2615 52.216ZM83.6313 53.42C82.7353 53.42 81.9793 53.28 81.3633 53C80.766 52.72 80.2526 52.356 79.8233 51.908C79.4126 51.46 79.03 50.9747 78.6753 50.452L74.5873 44.208C74.382 43.8907 74.214 43.6947 74.0833 43.62C73.9713 43.5267 73.8313 43.48 73.6633 43.48C73.4766 43.48 73.318 43.5547 73.1873 43.704C73.0753 43.8533 73.0193 44.096 73.0193 44.432V50.2C73.0193 51.1147 73.1593 51.6933 73.4393 51.936C73.7193 52.1787 74.2326 52.3187 74.9793 52.356V53H66.9993V52.356C67.5406 52.3187 67.9326 52.1787 68.1753 51.936C68.418 51.6933 68.5393 51.1147 68.5393 50.2V37.18C68.5393 36.2653 68.3993 35.6867 68.1193 35.444C67.858 35.1827 67.3446 35.0427 66.5793 35.024V34.38H74.5593V35.024C74.018 35.0427 73.626 35.1827 73.3833 35.444C73.1406 35.6867 73.0193 36.2653 73.0193 37.18V42.36H73.0753L79.3473 37.18C79.6646 36.9187 79.9073 36.6853 80.0753 36.48C80.2433 36.256 80.3273 36.0507 80.3273 35.864C80.3273 35.36 79.7766 35.08 78.6753 35.024V34.38H85.0313V35.024C84.4713 35.1173 83.958 35.3133 83.4913 35.612C83.0246 35.9107 82.5206 36.2933 81.9793 36.76L77.9193 40.12C77.77 40.2507 77.6953 40.3813 77.6953 40.512C77.714 40.6427 77.7886 40.82 77.9193 41.044L83.7713 50.116C84.3126 50.9747 84.8073 51.5627 85.2553 51.88C85.7033 52.1973 86.1046 52.356 86.4593 52.356V53C86.086 53.1307 85.638 53.2333 85.1153 53.308C84.6113 53.3827 84.1166 53.42 83.6313 53.42ZM88.7781 53V52.356C89.3194 52.3187 89.7114 52.1787 89.9541 51.936C90.1967 51.6933 90.3181 51.1147 90.3181 50.2V37.18C90.3181 36.2653 90.1781 35.6867 89.8981 35.444C89.6367 35.1827 89.1234 35.0427 88.3581 35.024V34.38H90.3181C91.6807 34.38 92.9594 34.3613 94.1541 34.324C95.3487 34.268 96.2447 34.24 96.8421 34.24C98.7834 34.24 100.314 34.4547 101.434 34.884C102.573 35.3133 103.385 35.8827 103.87 36.592C104.374 37.2827 104.626 38.048 104.626 38.888C104.626 39.8587 104.309 40.7827 103.674 41.66C103.058 42.5373 102.069 43.2187 100.706 43.704C99.3621 44.1707 97.5794 44.32 95.3581 44.152V43.172C96.3661 43.2093 97.1967 43.032 97.8501 42.64C98.5034 42.2293 98.9794 41.688 99.2781 41.016C99.5954 40.344 99.7541 39.6253 99.7541 38.86C99.7541 37.8333 99.4647 37.012 98.8861 36.396C98.3074 35.7613 97.5047 35.444 96.4781 35.444C95.8621 35.444 95.4234 35.556 95.1621 35.78C94.9194 35.9853 94.7981 36.452 94.7981 37.18V50.2C94.7981 50.7973 94.8541 51.2547 94.9661 51.572C95.0967 51.8707 95.3207 52.076 95.6381 52.188C95.9741 52.2813 96.4407 52.3373 97.0381 52.356V53H88.7781ZM117.424 33.96C118.75 33.96 119.982 34.184 121.12 34.632C122.259 35.08 123.267 35.7333 124.144 36.592C125.022 37.432 125.703 38.4493 126.188 39.644C126.674 40.8387 126.916 42.1733 126.916 43.648C126.916 45.1227 126.674 46.4573 126.188 47.652C125.703 48.8467 125.022 49.8733 124.144 50.732C123.286 51.5907 122.278 52.2533 121.12 52.72C119.963 53.1867 118.722 53.42 117.396 53.42C116.09 53.42 114.858 53.196 113.7 52.748C112.562 52.3 111.554 51.656 110.676 50.816C109.799 49.9573 109.118 48.9307 108.632 47.736C108.147 46.5413 107.904 45.2067 107.904 43.732C107.904 42.2573 108.147 40.9227 108.632 39.728C109.118 38.5333 109.79 37.5067 110.648 36.648C111.526 35.7893 112.543 35.1267 113.7 34.66C114.858 34.1933 116.099 33.96 117.424 33.96ZM117.984 52.216C118.955 52.216 119.72 51.8987 120.28 51.264C120.84 50.6107 121.242 49.7147 121.484 48.576C121.746 47.4373 121.876 46.112 121.876 44.6C121.876 41.5573 121.41 39.224 120.476 37.6C119.562 35.976 118.348 35.164 116.836 35.164C115.884 35.164 115.119 35.4813 114.54 36.116C113.98 36.7507 113.57 37.6467 113.308 38.804C113.066 39.9427 112.944 41.268 112.944 42.78C112.944 45.8227 113.402 48.156 114.316 49.78C115.25 51.404 116.472 52.216 117.984 52.216ZM130.862 53V52.356C131.404 52.3187 131.796 52.1787 132.038 51.936C132.281 51.6933 132.402 51.1147 132.402 50.2V37.18C132.402 36.2653 132.262 35.6867 131.982 35.444C131.721 35.1827 131.208 35.0427 130.442 35.024V34.38H138.422V35.024C137.881 35.0427 137.489 35.1827 137.246 35.444C137.004 35.6867 136.882 36.2653 136.882 37.18V50.2C136.882 51.1147 137.022 51.6933 137.302 51.936C137.582 52.1787 138.096 52.3187 138.842 52.356V53H130.862ZM158.792 53.224C158.512 52.9253 158.223 52.636 157.924 52.356C157.625 52.0573 157.149 51.6187 156.496 51.04L145.464 40.96H145.408V50.2C145.408 50.8347 145.567 51.348 145.884 51.74C146.22 52.1133 146.789 52.3187 147.592 52.356V53H142.412V52.356C142.953 52.3187 143.345 52.1133 143.588 51.74C143.831 51.348 143.952 50.8347 143.952 50.2V37.18C143.952 36.2653 143.812 35.6867 143.532 35.444C143.271 35.1827 142.757 35.0427 141.992 35.024V34.38H145.352C145.632 34.7347 145.931 35.052 146.248 35.332C146.565 35.612 146.929 35.948 147.34 36.34L158.484 46.42H158.54V37.18C158.54 36.5453 158.381 36.032 158.064 35.64C157.747 35.248 157.177 35.0427 156.356 35.024V34.38H161.536V35.024C160.995 35.0427 160.603 35.248 160.36 35.64C160.117 36.032 159.996 36.5453 159.996 37.18V50.2C159.996 50.7227 159.996 51.2267 159.996 51.712C160.015 52.1787 160.033 52.6827 160.052 53.224H158.792ZM164.31 34.38H180.27V39H179.626C179.514 37.992 179.216 37.1707 178.73 36.536C178.245 35.9013 177.414 35.584 176.238 35.584H174.53V50.2C174.53 51.1147 174.67 51.6933 174.95 51.936C175.23 52.1787 175.744 52.3187 176.49 52.356V53H168.51V52.356C169.052 52.3187 169.444 52.1787 169.686 51.936C169.929 51.6933 170.05 51.1147 170.05 50.2V35.584H168.314C167.176 35.584 166.354 35.9013 165.85 36.536C165.365 37.1707 165.066 37.992 164.954 39H164.31V34.38Z" fill="#CC9600"/>
</svg>
